<svg fill="#fff" opacity="0.3" xmlns="http://www.w3.org/2000/svg" viewBox="0 0 1920 1080">
    <path d="M478.44,279.5c-2.08,10.24-11.88,21.34-21.79,24.66l-100.18,33.6c-9.91,3.32-24.42.38-32.25-6.54l-79.19-70c-7.83-6.92-12.54-21-10.46-31.2l21-103.56c2.08-10.24,11.88-21.34,21.79-24.66l100.18-33.6c9.91-3.32,24.42-.38,32.25,6.54l79.19,70c7.83,6.92,12.54,21,10.46,31.2Z"/>
    <path d="M183.19,839.64c1.09,1.91.2,3.23-2,2.93l-16.85-2.32a8.52,8.52,0,0,0-6.65,2.41l-11.47,12.55c-1.48,1.63-3,1.19-3.4-1l-3-16.73a8.56,8.56,0,0,0-4.35-5.59l-15.49-7c-2-.91-2.05-2.5-.11-3.54l15-8a8.54,8.54,0,0,0,4-5.86l1.89-16.9c.25-2.19,1.74-2.73,3.33-1.2l12.26,11.77a8.54,8.54,0,0,0,6.8,2l16.66-3.42c2.15-.45,3.13.81,2.17,2.79l-7.41,15.3a8.54,8.54,0,0,0,.23,7.08Z"/>
    <path d="M1784.47,82.07c-2.54,2.4-4.91,1.52-5.27-2a13.54,13.54,0,0,0-6.23-9.35c-3.07-1.67-3-4.2.23-5.61a13.58,13.58,0,0,0,7-8.82c.64-3.43,3.08-4.11,5.41-1.52a13.55,13.55,0,0,0,10.54,3.91c3.46-.45,4.86,1.65,3.11,4.67a13.56,13.56,0,0,0-.45,11.23c1.49,3.16-.08,5.14-3.49,4.41A13.57,13.57,0,0,0,1784.47,82.07Z"/>
    <path d="M1583.47,926.57c-3.85-.06-5-2.58-2.66-5.6l13.89-17.59A15,15,0,0,0,1597,891.2l-6.61-21.43c-1.14-3.67.88-5.59,4.5-4.25l21,7.78a15,15,0,0,0,12.29-1.6l18.33-12.91c3.15-2.22,5.6-.89,5.44,3l-.9,22.4a14.94,14.94,0,0,0,5.32,11.19l17.94,13.45c3.08,2.31,2.57,5.05-1.14,6.09l-21.58,6.06a15,15,0,0,0-9,8.52l-7.24,21.22c-1.25,3.64-4,4-6.15.8l-12.43-18.66a15,15,0,0,0-10.89-5.92Z"/>
    <rect x="1473" y="420" width="73" height="73" rx="12" transform="translate(487 1657.12) rotate(-66.41)"/>
    <rect x="406" y="738" width="186" height="186" rx="25" transform="translate(-238.34 201.8) rotate(-18.54)"/>
    <path d="M806.08,164.38c-9.23-6-17.25-1.91-17.83,9.08L777.28,382c-.57,11,7,15.88,16.77,10.89l186.09-94.77c9.8-5,10.28-14,1.05-20Z"/>
    <path d="M1084.26,969.86c2.36,5.57,7.28,6.18,10.92,1.35l75.88-100.48c3.64-4.83,1.71-9.39-4.29-10.13l-125-15.47c-6-.75-9,3.2-6.63,8.78Z"/>
    <path d="M1347.27,561.19c-6.22-8.39-19.42-12.54-29.33-9.22l-57.57,19.31c-9.9,3.32-17.93,14.59-17.83,25l.57,60.71c.1,10.45,8.34,21.57,18.3,24.7L1319.34,700c10,3.14,23.08-1.26,29.14-9.77l35.23-49.46c6.06-8.51,5.93-22.35-.29-30.74Z"/>
    <path d="M140.11,561.35a9.65,9.65,0,0,1-15,3.19L52.74,507.6a15,15,0,0,1-3.83-18l43-81.43a9.67,9.67,0,0,1,15-3.19l72.35,56.95a15,15,0,0,1,3.83,18Z"/>
    <circle cx="1438" cy="152" r="111"/>
</svg>