<svg xmlns="http://www.w3.org/2000/svg" viewBox="0 0 512.02 512.08">
    <path d="M193.8,227.7,18.74,402.76a64,64,0,0,0,90.5,90.5L258.12,344.38a75.34,75.34,0,0,1,6.58-45.78ZM64,472a24,24,0,1,1,24-24A24,24,0,0,1,64,472ZM507.73,109.1a12,12,0,0,0-20.12-5.51L413.25,178l-67.88-11.31L334.06,98.76,408.42,24.4a12,12,0,0,0-5.66-20.16A143.91,143.91,0,0,0,266.18,42.17c-39.64,39.64-50.55,97.1-34.05,147.2l-4.43,4.43,70.9,70.9A74.25,74.25,0,0,1,384,278.6l7.21,7.21a141.74,141.74,0,0,0,78.61-40A143.92,143.92,0,0,0,507.73,109.1Z"
          transform="translate(0 0.03)" style="fill:#1f6bcb;opacity:0.5"/>
    <path d="M501.1,395.7a37.36,37.36,0,0,1,0,52.7l-52.7,52.7a37.18,37.18,0,0,1-52.58.12l-.12-.12L278.6,384c-23.1-23.1-27.5-57.6-13.9-85.4L158.1,192H96L0,64,64,0,192,96v62.1L298.6,264.7A74.25,74.25,0,0,1,384,278.6Z"
          transform="translate(0 0.03)" style="fill:#1f6bcb"/>
</svg>